<?xml version="1.0" encoding="UTF-8" standalone="no"?>
<!DOCTYPE svg PUBLIC "-//W3C//DTD SVG 1.1//EN" "http://www.w3.org/Graphics/SVG/1.1/DTD/svg11.dtd">
<svg style="fill-rule:evenodd;clip-rule:evenodd;stroke-linecap:round;stroke-linejoin:round;" xmlns:xlink="http://www.w3.org/1999/xlink" xmlns="http://www.w3.org/2000/svg" xml:space="preserve" version="1.1" viewBox="0 0 376.047 408.404">
  <g>
    <path stroke="#365fcb" stroke-width="3.5" d="M243.469+7.03125C241.881+8.29471+240.723+9.73094+239.969+10.3125C231.448+16.8815+209.591+31.4257+198.25+38.25C195.928+39.6471+94.5781+76.5958+84.8438+83.625C82.9111+85.0205+72.1752+88.1623+70.9688+88.3438C70.9687+89.6142+52.9267+96.6418+48.6562+101.781C46.4812+104.399+29.6296+119.219+24.2188+119.219C15.4004+119.583+7.03125+141.341+7.03125+143.156C7.63446+143.156+24.6282+170.425+28.1562+174.375C33.6022+180.473+88.2976+189.806+88.75+189.625C88.8631+192.891+94.6304+207.769+94.7812+207.406C96.4534+208.413+112.398+255.855+126.75+266.219C129.511+268.213+148.62+278.2+148.469+278.562C152.041+281.429+153.604+296.417+153.594+296.688C152.946+313.071+165.969+320.656+165.969+320.656C165.969+320.656+213.938+388.55+213.938+402.344C240.78+402.162+265.694+402.444+264.281+401.594C271.825+392.872+283.761+378.98+283.906+376.188C284.962+376.187+302.461+339.933+303.469+334.781C303.775+333.214+309.851+318.123+312.125+311.406L294.812+311.406L294.812+235.094L223+235.094L223+311.406L173.25+311.406L173.25+126.406L223+126.406L223+197.812L294.812+197.812L294.812+126.406L344.562+126.406L344.562+142.375C354.353+136.258+367.674+127.567+367.75+126.469C368.238+119.424+250.774+10.3481+243.469+7.03125Z" fill="#365fcb" stroke-linecap="round" opacity="1" stroke-linejoin="round"/>
  </g>
</svg>
