<?xml version="1.0" encoding="UTF-8" standalone="no"?>
<!DOCTYPE svg PUBLIC "-//W3C//DTD SVG 1.1//EN" "http://www.w3.org/Graphics/SVG/1.1/DTD/svg11.dtd">
<svg style="fill-rule:evenodd;clip-rule:evenodd;stroke-linecap:round;stroke-linejoin:round;" xmlns:xlink="http://www.w3.org/1999/xlink" xmlns="http://www.w3.org/2000/svg" xml:space="preserve" version="1.1" viewBox="0 0 710.523 408.404">
  <g>
    <path stroke="#365fcb" stroke-width="3.5" d="M243.469+7.03125C241.881+8.29471+240.723+9.73094+239.969+10.3125C231.448+16.8815+209.591+31.4257+198.25+38.25C195.928+39.6471+94.5781+76.5958+84.8438+83.625C82.9111+85.0205+72.1752+88.1623+70.9688+88.3438C70.9687+89.6142+52.9267+96.6418+48.6562+101.781C46.4812+104.399+29.6296+119.219+24.2188+119.219C15.4004+119.583+7.03125+141.341+7.03125+143.156C7.63446+143.156+24.6282+170.425+28.1562+174.375C33.6022+180.473+88.2976+189.806+88.75+189.625C88.8631+192.891+94.6304+207.769+94.7812+207.406C96.4534+208.413+112.398+255.855+126.75+266.219C129.511+268.213+148.62+278.2+148.469+278.562C152.041+281.429+153.604+296.417+153.594+296.688C152.946+313.071+165.969+320.656+165.969+320.656C165.969+320.656+213.938+388.55+213.938+402.344C240.78+402.162+265.694+402.444+264.281+401.594C271.825+392.872+283.761+378.98+283.906+376.188C284.962+376.187+302.461+339.933+303.469+334.781C303.775+333.214+309.851+318.123+312.125+311.406L294.812+311.406L294.812+235.094L223+235.094L223+311.406L173.25+311.406L173.25+126.406L223+126.406L223+197.812L294.812+197.812L294.812+126.406L344.562+126.406L344.562+142.375C354.353+136.258+367.674+127.567+367.75+126.469C368.238+119.424+250.774+10.3481+243.469+7.03125Z" fill="#365fcb" stroke-linecap="round" opacity="1" stroke-linejoin="round"/>
    <path d="M427.843+179.247C426.507+173.607+423.762+169.081+419.606+165.667C415.451+162.254+410.405+160.547+404.468+160.547C398.235+160.547+393.152+162.179+389.219+165.445C385.286+168.71+382.8+173.31+381.761+179.247L427.843+179.247ZM380.648+202.622C380.648+219.986+388.811+228.668+405.136+228.668C413.892+228.668+420.497+225.106+424.949+217.983L463.907+217.983C456.042+244.103+436.377+257.164+404.913+257.164C395.267+257.164+386.436+255.717+378.422+252.823C370.407+249.928+363.543+245.81+357.829+240.467C352.116+235.124+347.7+228.743+344.584+221.322C341.467+213.901+339.909+205.59+339.909+196.389C339.909+186.89+341.393+178.319+344.361+170.676C347.329+163.033+351.559+156.54+357.05+151.197C362.542+145.854+369.183+141.736+376.975+138.842C384.766+135.948+393.56+134.5+403.355+134.5C413.002+134.5+421.684+135.948+429.401+138.842C437.119+141.736+443.649+145.928+448.992+151.42C454.335+156.911+458.416+163.626+461.236+171.567C464.056+179.507+465.466+188.449+465.466+198.392L465.466+202.622L380.648+202.622Z" opacity="1" fill="#365fcb"/>
    <path d="M549.996+168.116C542.576+164.257+535.303+162.328+528.179+162.328C524.469+162.328+521.464+163.07+519.163+164.554C516.863+166.038+515.713+168.042+515.713+170.565C515.713+171.9+515.898+172.976+516.269+173.793C516.64+174.609+517.457+175.388+518.718+176.13C519.98+176.872+521.835+177.54+524.284+178.134C526.732+178.727+529.96+179.47+533.968+180.36C545.099+182.586+553.41+186.556+558.901+192.27C564.392+197.984+567.138+205.293+567.138+214.198C567.138+220.877+565.802+226.887+563.131+232.23C560.459+237.573+556.749+242.063+552+245.699C547.251+249.335+541.537+252.155+534.858+254.158C528.179+256.162+520.833+257.164+512.819+257.164C497.384+257.164+482.172+252.785+467.182+244.029L481.875+215.534C493.154+223.251+503.84+227.11+513.932+227.11C517.642+227.11+520.685+226.294+523.059+224.661C525.434+223.029+526.621+220.951+526.621+218.428C526.621+216.944+526.436+215.719+526.065+214.755C525.694+213.79+524.914+212.899+523.727+212.083C522.54+211.267+520.796+210.525+518.496+209.857C516.195+209.189+513.19+208.484+509.479+207.742C497.013+205.219+488.294+201.472+483.322+196.5C478.35+191.528+475.864+184.664+475.864+175.908C475.864+169.526+477.051+163.775+479.426+158.655C481.801+153.534+485.214+149.193+489.666+145.631C494.119+142.07+499.499+139.324+505.806+137.395C512.114+135.465+519.126+134.5+526.844+134.5C539.459+134.5+551.703+136.949+563.576+141.847L549.996+168.116Z" opacity="1" fill="#365fcb"/>
    <path d="M653.734+168.116C646.313+164.257+639.041+162.328+631.917+162.328C628.207+162.328+625.202+163.07+622.901+164.554C620.601+166.038+619.451+168.042+619.451+170.565C619.451+171.9+619.636+172.976+620.007+173.793C620.378+174.609+621.195+175.388+622.456+176.13C623.718+176.872+625.573+177.54+628.021+178.134C630.47+178.727+633.698+179.47+637.705+180.36C648.836+182.586+657.147+186.556+662.639+192.27C668.13+197.984+670.876+205.293+670.876+214.198C670.876+220.877+669.54+226.887+666.869+232.23C664.197+237.573+660.487+242.063+655.738+245.699C650.988+249.335+645.274+252.155+638.596+254.158C631.917+256.162+624.571+257.164+616.557+257.164C601.122+257.164+585.909+252.785+570.92+244.029L585.613+215.534C596.892+223.251+607.578+227.11+617.67+227.11C621.38+227.11+624.422+226.294+626.797+224.661C629.172+223.029+630.359+220.951+630.359+218.428C630.359+216.944+630.173+215.719+629.802+214.755C629.431+213.79+628.652+212.899+627.465+212.083C626.278+211.267+624.534+210.525+622.233+209.857C619.933+209.189+616.928+208.484+613.217+207.742C600.751+205.219+592.031+201.472+587.06+196.5C582.088+191.528+579.602+184.664+579.602+175.908C579.602+169.526+580.789+163.775+583.164+158.655C585.538+153.534+588.952+149.193+593.404+145.631C597.857+142.07+603.237+139.324+609.544+137.395C615.852+135.465+622.864+134.5+630.582+134.5C643.197+134.5+655.441+136.949+667.314+141.847L653.734+168.116Z" opacity="1" fill="#365fcb"/>
    <g opacity="1">
      <path d="M331.702+283.834L330.12+296.79L326.235+296.79L327.835+283.834L325.303+283.834L325.743+280.231L328.274+280.231L329.188+272.831C329.423+270.862+329.956+269.415+330.788+268.489C331.62+267.563+332.809+267.1+334.356+267.1C335.294+267.1+336.389+267.399+337.643+267.997L337.221+271.407C336.495+270.821+335.827+270.528+335.218+270.528C334.514+270.528+333.993+270.768+333.653+271.249C333.337+271.729+333.096+272.614+332.932+273.903L332.159+280.231L335.675+280.231L335.235+283.834L331.702+283.834Z" opacity="1" fill="#f43e3e"/>
      <path d="M355.309+288.352C355.309+290.883+354.43+293.01+352.673+294.733C350.927+296.456+348.77+297.317+346.204+297.317C343.52+297.317+341.329+296.502+339.63+294.874C337.919+293.233+337.063+291.159+337.063+288.651C337.063+286.084+337.948+283.952+339.718+282.252C341.499+280.542+343.725+279.686+346.397+279.686C349.022+279.686+351.161+280.495+352.813+282.112C354.477+283.706+355.309+285.786+355.309+288.352ZM351.389+288.159C351.389+286.565+350.927+285.305+350.001+284.379C349.075+283.418+347.862+282.938+346.362+282.938C344.803+282.938+343.514+283.471+342.495+284.538C341.475+285.616+340.966+286.969+340.966+288.598C340.966+290.239+341.446+291.557+342.407+292.553C343.368+293.573+344.61+294.083+346.134+294.083C347.657+294.083+348.911+293.526+349.895+292.413C350.891+291.311+351.389+289.893+351.389+288.159Z" opacity="1" fill="#f43e3e"/>
      <path d="M364.608+280.231L364.432+281.655C365.745+280.413+367.069+279.792+368.405+279.792C369.577+279.792+370.643+280.219+371.604+281.075L369.126+284.274C368.411+283.665+367.696+283.36+366.981+283.36C366.489+283.36+366.055+283.457+365.68+283.65C365.305+283.843+364.98+284.148+364.705+284.564C364.429+284.98+364.201+285.516+364.019+286.172C363.838+286.829+363.694+287.614+363.589+288.528L362.569+296.79L358.684+296.79L360.723+280.231L364.608+280.231Z" opacity="1" fill="#f43e3e"/>
    </g>
    <g opacity="1">
      <path d="M414.054+289.403C411.244+285.972+407.772+284.257+403.638+284.257C401.82+284.257+400.135+284.587+398.585+285.249C397.035+285.91+395.702+286.809+394.586+287.946C393.47+289.082+392.592+290.436+391.951+292.007C391.311+293.577+390.99+295.272+390.99+297.091C390.99+298.951+391.311+300.666+391.951+302.237C392.592+303.807+393.481+305.171+394.617+306.329C395.754+307.486+397.087+308.395+398.616+309.057C400.146+309.718+401.799+310.049+403.576+310.049C407.462+310.049+410.954+308.395+414.054+305.089L414.054+319.473L412.814+319.907C410.954+320.568+409.218+321.054+407.606+321.364C405.994+321.674+404.403+321.829+402.832+321.829C399.608+321.829+396.519+321.219+393.563+320C390.608+318.78+388.004+317.065+385.751+314.854C383.499+312.642+381.69+310.018+380.326+306.98C378.962+303.942+378.28+300.625+378.28+297.029C378.28+293.433+378.952+290.136+380.295+287.14C381.639+284.143+383.437+281.56+385.689+279.39C387.942+277.22+390.556+275.525+393.532+274.306C396.508+273.086+399.629+272.477+402.894+272.477C404.754+272.477+406.583+272.673+408.381+273.066C410.179+273.458+412.07+274.068+414.054+274.895L414.054+289.403Z" opacity="1" fill="#f43e3e"/>
      <path d="M431.29+304.469C431.29+305.543+431.487+306.525+431.879+307.414C432.272+308.302+432.789+309.077+433.429+309.739C434.07+310.4+434.835+310.917+435.723+311.289C436.612+311.661+437.552+311.847+438.544+311.847C439.536+311.847+440.477+311.661+441.365+311.289C442.254+310.917+443.019+310.4+443.659+309.739C444.3+309.077+444.817+308.302+445.209+307.414C445.602+306.525+445.798+305.564+445.798+304.531C445.798+303.539+445.602+302.598+445.209+301.71C444.817+300.821+444.3+300.046+443.659+299.385C443.019+298.723+442.254+298.207+441.365+297.835C440.477+297.463+439.536+297.277+438.544+297.277C437.552+297.277+436.612+297.463+435.723+297.835C434.835+298.207+434.07+298.723+433.429+299.385C432.789+300.046+432.272+300.811+431.879+301.679C431.487+302.547+431.29+303.477+431.29+304.469ZM419.448+304.345C419.448+301.989+419.924+299.788+420.874+297.742C421.825+295.696+423.148+293.918+424.842+292.41C426.537+290.901+428.552+289.713+430.887+288.845C433.223+287.977+435.775+287.543+438.544+287.543C441.272+287.543+443.804+287.966+446.139+288.814C448.475+289.661+450.5+290.839+452.215+292.348C453.931+293.856+455.264+295.654+456.214+297.742C457.165+299.829+457.64+302.133+457.64+304.655C457.64+307.176+457.155+309.48+456.183+311.568C455.212+313.655+453.879+315.453+452.184+316.962C450.49+318.47+448.454+319.638+446.077+320.465C443.701+321.291+441.128+321.705+438.358+321.705C435.63+321.705+433.109+321.291+430.794+320.465C428.48+319.638+426.485+318.46+424.811+316.931C423.137+315.401+421.825+313.572+420.874+311.444C419.924+309.315+419.448+306.949+419.448+304.345Z" opacity="1" fill="#f43e3e"/>
      <path d="M464.088+288.721L475.31+288.721L475.31+292.751C476.84+290.891+478.39+289.64+479.96+289C481.531+288.359+483.37+288.039+485.478+288.039C487.71+288.039+489.622+288.4+491.213+289.124C492.805+289.847+494.158+290.87+495.274+292.193C496.184+293.267+496.804+294.466+497.134+295.789C497.465+297.111+497.63+298.62+497.63+300.315L497.63+320.527L486.408+320.527L486.408+304.469C486.408+302.898+486.295+301.627+486.067+300.656C485.84+299.684+485.437+298.909+484.858+298.331C484.362+297.835+483.804+297.483+483.184+297.277C482.564+297.07+481.903+296.967+481.2+296.967C479.299+296.967+477.842+297.535+476.829+298.672C475.817+299.808+475.31+301.431+475.31+303.539L475.31+320.527L464.088+320.527L464.088+288.721Z" opacity="1" fill="#f43e3e"/>
      <path d="M517.78+298.083L517.78+320.527L506.558+320.527L506.558+298.083L502.838+298.083L502.838+288.721L506.558+288.721L506.558+279.173L517.78+279.173L517.78+288.721L524.166+288.721L524.166+298.083L517.78+298.083Z" opacity="1" fill="#f43e3e"/>
      <path d="M528.382+288.721L539.604+288.721L539.604+293.929C540.803+292.027+542.27+290.57+544.006+289.558C545.742+288.545+547.768+288.039+550.082+288.039C550.372+288.039+550.692+288.039+551.043+288.039C551.395+288.039+551.798+288.08+552.252+288.163L552.252+298.889C550.764+298.145+549.152+297.773+547.416+297.773C544.812+297.773+542.859+298.548+541.557+300.098C540.255+301.648+539.604+303.911+539.604+306.887L539.604+320.527L528.382+320.527L528.382+288.721Z" opacity="1" fill="#f43e3e"/>
      <path d="M567.814+304.469C567.814+305.543+568.011+306.525+568.403+307.414C568.796+308.302+569.313+309.077+569.953+309.739C570.594+310.4+571.359+310.917+572.247+311.289C573.136+311.661+574.076+311.847+575.068+311.847C576.06+311.847+577.001+311.661+577.889+311.289C578.778+310.917+579.543+310.4+580.183+309.739C580.824+309.077+581.341+308.302+581.733+307.414C582.126+306.525+582.322+305.564+582.322+304.531C582.322+303.539+582.126+302.598+581.733+301.71C581.341+300.821+580.824+300.046+580.183+299.385C579.543+298.723+578.778+298.207+577.889+297.835C577.001+297.463+576.06+297.277+575.068+297.277C574.076+297.277+573.136+297.463+572.247+297.835C571.359+298.207+570.594+298.723+569.953+299.385C569.313+300.046+568.796+300.811+568.403+301.679C568.011+302.547+567.814+303.477+567.814+304.469ZM555.972+304.345C555.972+301.989+556.448+299.788+557.398+297.742C558.349+295.696+559.672+293.918+561.366+292.41C563.061+290.901+565.076+289.713+567.411+288.845C569.747+287.977+572.299+287.543+575.068+287.543C577.796+287.543+580.328+287.966+582.663+288.814C584.999+289.661+587.024+290.839+588.739+292.348C590.455+293.856+591.788+295.654+592.738+297.742C593.689+299.829+594.164+302.133+594.164+304.655C594.164+307.176+593.679+309.48+592.707+311.568C591.736+313.655+590.403+315.453+588.708+316.962C587.014+318.47+584.978+319.638+582.601+320.465C580.225+321.291+577.652+321.705+574.882+321.705C572.154+321.705+569.633+321.291+567.318+320.465C565.004+319.638+563.009+318.46+561.335+316.931C559.661+315.401+558.349+313.572+557.398+311.444C556.448+309.315+555.972+306.949+555.972+304.345Z" opacity="1" fill="#f43e3e"/>
      <path d="M611.834+269.067L611.834+320.527L600.612+320.527L600.612+269.067L611.834+269.067Z" opacity="1" fill="#f43e3e"/>
      <path d="M630.744+269.067L630.744+320.527L619.522+320.527L619.522+269.067L630.744+269.067Z" opacity="1" fill="#f43e3e"/>
      <path d="M661.682+300.005C661.31+298.434+660.546+297.173+659.388+296.223C658.231+295.272+656.826+294.797+655.172+294.797C653.436+294.797+652.021+295.251+650.925+296.161C649.83+297.07+649.138+298.351+648.848+300.005L661.682+300.005ZM648.538+306.515C648.538+311.351+650.812+313.769+655.358+313.769C657.797+313.769+659.636+312.777+660.876+310.793L671.726+310.793C669.536+318.067+664.059+321.705+655.296+321.705C652.61+321.705+650.15+321.302+647.918+320.496C645.686+319.69+643.775+318.543+642.183+317.055C640.592+315.567+639.362+313.789+638.494+311.723C637.626+309.656+637.192+307.341+637.192+304.779C637.192+302.133+637.606+299.746+638.432+297.618C639.259+295.489+640.437+293.681+641.966+292.193C643.496+290.705+645.345+289.558+647.515+288.752C649.685+287.946+652.134+287.543+654.862+287.543C657.549+287.543+659.967+287.946+662.116+288.752C664.266+289.558+666.084+290.725+667.572+292.255C669.06+293.784+670.197+295.654+670.982+297.866C671.768+300.077+672.16+302.567+672.16+305.337L672.16+306.515L648.538+306.515Z" opacity="1" fill="#f43e3e"/>
      <path d="M678.546+288.721L689.768+288.721L689.768+293.929C690.967+292.027+692.434+290.57+694.17+289.558C695.906+288.545+697.932+288.039+700.246+288.039C700.536+288.039+700.856+288.039+701.207+288.039C701.559+288.039+701.962+288.08+702.416+288.163L702.416+298.889C700.928+298.145+699.316+297.773+697.58+297.773C694.976+297.773+693.023+298.548+691.721+300.098C690.419+301.648+689.768+303.911+689.768+306.887L689.768+320.527L678.546+320.527L678.546+288.721Z" opacity="1" fill="#f43e3e"/>
    </g>
  </g>
</svg>
